<svg width="32" height="33" viewBox="0 0 32 33" fill="none" xmlns="http://www.w3.org/2000/svg">
<path d="M11.5 15L16 10M16 10L20.5 15M16 10V23M16 4C19.3152 4 22.4946 5.31696 24.8388 7.66117C27.183 10.0054 28.5 13.1848 28.5 16.5C28.5 19.8152 27.183 22.9946 24.8388 25.3388C22.4946 27.683 19.3152 29 16 29C12.6848 29 9.50537 27.683 7.16117 25.3388C4.81696 22.9946 3.5 19.8152 3.5 16.5C3.5 13.1848 4.81696 10.0054 7.16117 7.66117C9.50537 5.31696 12.6848 4 16 4V4Z" stroke="white" stroke-width="2.5" stroke-linecap="round" stroke-linejoin="round"/>
</svg>
